<svg width="19" height="21" viewBox="0 0 19 21" fill="none" xmlns="http://www.w3.org/2000/svg">
<path d="M10.6823 16.7299L12.2139 12.8383L12.5492 11.9716C12.6101 11.8383 12.7702 11.7216 12.9073 11.7216L15.239 11.7216C15.9706 11.7216 16.8392 11.1299 17.1745 10.4133C17.2888 10.1633 17.2888 9.86328 17.1745 9.61328C16.8392 8.90495 15.9629 8.31328 15.2314 8.31328L12.8997 8.31328C12.7626 8.31328 12.6025 8.19661 12.5416 8.06328L10.6747 3.31328C10.4766 2.78828 9.87457 2.36328 9.35641 2.36328L8.35057 2.36328C7.70287 2.36328 7.38283 2.89661 7.64191 3.55495L9.28783 7.72995C9.41737 8.05495 9.25735 8.32161 8.92969 8.32161L8.08387 8.32161L6.71227 8.32161C6.53701 8.32161 6.28555 8.21328 6.16363 8.07995L4.38817 6.14661C4.20529 5.94661 3.84715 5.85495 3.58807 5.94661L2.55175 6.32161C2.10217 6.47161 1.88881 7.02995 2.10217 7.48828L3.62617 9.47161C3.86239 9.77161 3.86239 10.2633 3.62617 10.5633L2.10217 12.5466C1.89643 13.0049 2.10217 13.5633 2.55175 13.7299L3.58807 14.1049C3.83953 14.1966 4.20529 14.1049 4.38817 13.9049L6.16363 11.9716C6.28555 11.8299 6.53701 11.7216 6.71227 11.7216L8.92969 11.7216C9.25735 11.7216 9.40975 11.9799 9.28783 12.3133L7.64191 16.4883C7.38283 17.1466 7.70287 17.6799 8.35057 17.6799L9.35641 17.6799C9.87457 17.6799 10.4766 17.2549 10.6823 16.7299Z" fill="#55AD8B"/>
</svg>
