<svg width="96" height="126" viewBox="0 0 96 126" fill="none" xmlns="http://www.w3.org/2000/svg">
<g id="Dubai">
<path id="Ellipse 29" d="M52.584 32.5259C64.3012 33.989 75.8862 39.8468 83.4258 48.9345C90.9653 58.0222 95.064 69.6415 94.3388 81.4274C93.6136 93.2132 88.4245 104.28 79.8277 112.375C71.2309 120.47 59.8725 124.984 48.0644 125C36.2562 125.016 24.8859 120.531 16.2676 112.459C7.64937 104.387 2.43095 93.3341 1.67452 81.5502C0.918093 69.7663 4.68051 58.137 12.196 49.0294C19.7114 39.9217 31.7082 34.0201 43.4215 32.5259" stroke="white" stroke-width="2" stroke-linecap="round"/>
<path id="Vector 2" d="M28.4561 121.103V118.56C28.4561 118.008 28.9038 117.56 29.4561 117.56H31.9545M35.4529 123.583V118.56C35.4529 118.008 35.0052 117.56 34.4529 117.56H31.9545M31.9545 117.56V95.9684C31.9545 95.5343 32.2346 95.1497 32.6478 95.0166L35.8028 94M39.651 124.291V94.1328C39.651 93.4545 38.99 92.973 38.3443 93.181L35.8028 94M43.4993 125V69.4929C43.4993 68.7708 42.7573 68.2867 42.0963 68.5777L39.4761 69.7314M35.8028 94L35.4632 72.1663C35.457 71.7642 35.6921 71.3975 36.0601 71.2355L39.4761 69.7314M47.3476 125V43.5143M47.3476 43.5143V31.134C47.3476 30.3513 48.2061 29.8721 48.8723 30.2827L51.3708 31.8229M47.3476 43.5143L43.4993 45.9943M39.4761 69.7314L39.6466 49.0142C39.6494 48.6772 39.8216 48.3643 40.1049 48.1818L43.4993 45.9943M55.394 55.8131V34.8612C55.394 34.5142 55.2141 34.192 54.9187 34.0099L51.3708 31.8229M51.1959 125V55.381C51.1959 54.6439 51.9663 54.1601 52.6302 54.4803L57.9769 57.0587C58.3228 57.2254 58.5426 57.5755 58.5426 57.9594V81.7771M55.394 124.291L54.7154 82.3748C54.7048 81.7164 55.3224 81.2276 55.9607 81.3892L62.336 83.0032C62.7797 83.1156 63.0905 83.5149 63.0905 83.9727V108.349M63.0905 108.349H59.5426C58.9903 108.349 58.5426 108.796 58.5426 109.349V123.937M63.0905 108.349H65.9388C66.4911 108.349 66.9388 108.796 66.9388 109.349V121.457M49.0968 24.3829H45.9482M49.0968 24.3829L47.3476 1L45.9482 24.3829M49.0968 24.3829L50.6643 25.1766C50.9918 25.3424 51.2021 25.6743 51.2122 26.0413L51.3708 31.8229M45.9482 24.3829L44.1012 25.1845C43.7358 25.3431 43.4993 25.7035 43.4993 26.1018V45.9943" stroke="white" stroke-width="2" stroke-linecap="round"/>
</g>
</svg>
