<svg width="156" height="54" viewBox="0 0 156 54" fill="none" xmlns="http://www.w3.org/2000/svg">
<g clip-path="url(#clip0_227_2854)">
<path d="M66.6999 21.9304V27.8777H63.5225V10.98H69.0829C70.2227 10.98 71.2113 11.1124 72.0445 11.3773C72.8777 11.6422 73.5685 12.0139 74.1124 12.4882C74.6564 12.9624 75.0579 13.5307 75.3169 14.1929C75.5759 14.8551 75.7054 15.5815 75.7054 16.3676C75.7054 17.1537 75.5673 17.9356 75.291 18.6149C75.0147 19.2985 74.6003 19.8838 74.052 20.3752C73.4994 20.8665 72.813 21.2468 71.9841 21.5202C71.1595 21.7937 70.1881 21.9304 69.0786 21.9304H66.6956H66.6999ZM66.6999 19.4737H69.0829C69.6658 19.4737 70.1752 19.4011 70.6069 19.2558C71.0386 19.1105 71.3969 18.9054 71.6819 18.6363C71.9668 18.3671 72.1783 18.0381 72.3208 17.6536C72.4633 17.2691 72.5323 16.8376 72.5323 16.3633C72.5323 15.8891 72.4633 15.5045 72.3208 15.1371C72.1783 14.7697 71.9668 14.4578 71.6819 14.2014C71.3969 13.9451 71.0386 13.7486 70.6069 13.6118C70.1752 13.4751 69.6658 13.4068 69.0829 13.4068H66.6999V19.4694V19.4737Z" fill="#55AD8B"/>
<path d="M90.5736 10.9805V13.4799H83.0056V18.1668H88.9676V20.585H83.0056V25.3659H90.5736V27.8782H79.8066V10.9805H90.5736Z" fill="#55AD8B"/>
<path d="M106.987 10.9805V13.5611H101.85V27.8739H98.6727V13.5653H93.5137V10.9847H106.987V10.9805Z" fill="#55AD8B"/>
<path d="M123.695 21.8709C123.695 22.8194 123.578 23.6782 123.341 24.443C123.103 25.2077 122.754 25.8572 122.283 26.3955C121.817 26.9338 121.23 27.344 120.53 27.6345C119.831 27.9208 119.015 28.066 118.087 28.066C117.664 28.066 117.245 28.0404 116.835 27.9891C116.425 27.9379 115.997 27.8567 115.548 27.7499L115.712 25.8785C115.73 25.7076 115.794 25.5709 115.907 25.4641C116.019 25.3573 116.187 25.306 116.407 25.306C116.541 25.306 116.718 25.3316 116.934 25.3872C117.15 25.4427 117.422 25.4684 117.754 25.4684C118.203 25.4684 118.601 25.4043 118.946 25.2761C119.291 25.1479 119.581 24.9428 119.814 24.6609C120.047 24.3789 120.219 24.0157 120.34 23.5671C120.457 23.1185 120.517 22.5759 120.517 21.935V10.9761H123.695V21.8666V21.8709Z" fill="#55AD8B"/>
<path d="M139.539 10.9805V13.4799H131.971V18.1668H137.933V20.585H131.971V25.3659H139.539V27.8782H128.772V10.9805H139.539Z" fill="#55AD8B"/>
<path d="M155.948 10.9805V13.5611H150.811V27.8739H147.634V13.5653H142.475V10.9847H155.948V10.9805Z" fill="#55AD8B"/>
<path d="M13.7151 52.3252L12.9121 51.8125C10.1793 50.0736 8.13301 47.4332 7.15734 44.3783C6.72562 43.0368 6.50977 41.6311 6.50977 40.2084V19.2219L7.45522 19.8457C7.77901 20.0593 8.28411 20.0081 9.00939 19.9055L10.1707 19.7389C13.1452 19.3159 16.2233 18.8758 19.2842 18.7049C22.5307 18.5212 25.0778 20.179 26.455 23.362C27.163 24.9983 28.225 25.6905 29.9044 25.6221C30.3706 25.605 30.8369 25.6093 31.2902 25.6136C31.4758 25.6136 31.6614 25.6178 31.8471 25.6178C32.1277 25.6178 32.4083 25.6178 32.6932 25.6178C33.2545 25.6178 33.8373 25.6136 34.4115 25.6264C35.5037 25.652 36.2851 25.9767 36.7427 26.6005C37.1917 27.2115 37.2694 28.0361 36.9672 29.0401C36.7384 29.8049 36.488 30.5697 36.2506 31.3131C36.1556 31.5993 36.0649 31.8899 35.9743 32.1761C34.7568 35.9914 33.2415 37.1536 29.2007 37.3629C21.6111 37.756 14.8721 43.9169 13.8575 51.3852L13.728 52.3252H13.7151ZM7.72288 21.1744V21.1792V40.2041C7.72288 41.503 7.92147 42.7847 8.31433 44.0109C9.113 46.506 10.6888 48.6936 12.7955 50.2658C14.3108 42.6779 21.296 36.5682 29.123 36.1623C32.6717 35.9786 33.7337 35.1669 34.8 31.8172C34.8907 31.5267 34.9856 31.2404 35.0806 30.9499C35.3181 30.2108 35.5641 29.4503 35.7886 28.6983C35.9182 28.2668 36.0174 27.6772 35.7498 27.3097C35.4735 26.9338 34.8475 26.844 34.3726 26.8312C33.8114 26.8184 33.2415 26.8227 32.6889 26.8227C32.404 26.8227 32.1191 26.8227 31.8341 26.8227C31.6442 26.8227 31.4542 26.8227 31.2686 26.8184C30.8326 26.8141 30.3836 26.8056 29.9475 26.827C27.7501 26.9209 26.2391 25.9425 25.3282 23.8362C24.5079 21.9392 22.7984 19.7175 19.3446 19.9055C16.3399 20.0721 13.2877 20.5079 10.3391 20.9309L9.17344 21.0975C8.70857 21.1614 8.20936 21.2338 7.72288 21.1792L7.71857 21.1787L7.72288 21.1744Z" fill="#9ED0DF"/>
<path d="M7.72288 21.1792V40.2041C7.72288 41.503 7.92147 42.7847 8.31433 44.0109C9.113 46.506 10.6888 48.6936 12.7955 50.2658C14.3108 42.6779 21.296 36.5682 29.123 36.1623C32.6717 35.9786 33.7337 35.1669 34.8 31.8172C34.8907 31.5267 34.9856 31.2404 35.0806 30.9499C35.3181 30.2108 35.5641 29.4503 35.7886 28.6983C35.9182 28.2668 36.0174 27.6772 35.7498 27.3097C35.4735 26.9338 34.8475 26.844 34.3726 26.8312C33.8114 26.8184 33.2415 26.8227 32.6889 26.8227H31.8341C31.6442 26.8227 31.4542 26.8227 31.2686 26.8184C30.8326 26.8141 30.3836 26.8056 29.9475 26.827C27.7501 26.9209 26.2391 25.9425 25.3282 23.8362C24.5079 21.9392 22.7984 19.7175 19.3446 19.9055C16.3399 20.0721 13.2877 20.5079 10.3391 20.9309L9.17344 21.0975C8.70857 21.1614 8.20936 21.2338 7.72288 21.1792Z" fill="white"/>
<path d="M21.1495 26.1904C21.1581 27.1602 20.3767 27.9549 19.401 27.9635C18.4124 27.9763 17.6137 27.2158 17.5965 26.2459C17.5792 25.2846 18.3779 24.4686 19.3449 24.46C20.3292 24.4515 21.1408 25.2291 21.1495 26.1861V26.1904Z" fill="#55AD8B"/>
<path d="M31.9551 0.602539H20.4413C13.0806 0.602539 7.11426 6.50712 7.11426 13.7917V20.3414C7.64958 20.6961 8.33601 20.6063 9.09151 20.4995C12.4891 20.021 15.891 19.4955 19.3145 19.3032C22.4315 19.1323 24.6721 20.7772 25.8895 23.5971C26.6796 25.4214 27.9358 26.3058 29.9217 26.2204C30.5607 26.1948 31.1996 26.2204 31.8342 26.2204C32.6847 26.2204 33.5352 26.2076 34.3857 26.2247C36.16 26.2631 36.868 27.2073 36.3715 28.8651C36.0564 29.9118 35.711 30.9543 35.3786 31.9925C34.2389 35.5686 32.9394 36.5641 29.1533 36.7606C21.2615 37.1708 14.2894 43.5838 13.2403 51.3042C15.3168 52.6286 17.7906 53.3977 20.4456 53.3977H31.9594C39.3202 53.3977 45.2864 47.4931 45.2864 40.2085V13.796C45.2864 6.51139 39.3202 0.606812 31.9594 0.606812L31.9551 0.602539Z" fill="#9ED0DF"/>
<path d="M31.9553 54H20.4415C17.7563 54 15.153 53.2438 12.9081 51.8125L12.5843 51.6031L12.6361 51.2229C13.7284 43.1991 20.9682 36.5811 29.1233 36.1581C32.672 35.9744 33.734 35.1626 34.8003 31.813C34.891 31.5224 34.986 31.2362 35.081 30.9456C35.3184 30.2065 35.5645 29.446 35.789 28.694C35.9185 28.2625 36.0178 27.6729 35.7501 27.3055C35.4738 26.9295 34.8478 26.8398 34.3729 26.827C33.816 26.8141 33.2419 26.8184 32.6893 26.8184C32.4043 26.8184 32.1194 26.8184 31.8345 26.8184C31.6445 26.8184 31.4546 26.8184 31.2689 26.8141C30.8329 26.8099 30.3839 26.8013 29.9479 26.8227C27.7504 26.9167 26.2394 25.9383 25.3285 23.8319C24.5083 21.935 22.7987 19.7133 19.345 19.9013C16.3402 20.0679 13.288 20.5037 10.3394 20.9267L9.17378 21.0933C8.39237 21.2044 7.51168 21.3283 6.77344 20.8412L6.50146 20.6618V13.7916C6.50578 6.18656 12.757 0 20.4415 0H31.9553C39.6399 0 45.8911 6.18656 45.8911 13.7916V40.2041C45.8911 47.8092 39.6399 53.9957 31.9553 53.9957V54ZM13.8967 51.005C15.8653 52.1799 18.1189 52.7952 20.4415 52.7952H31.9553C38.9707 52.7952 44.678 47.1469 44.678 40.2041V13.7916C44.678 6.8488 38.9707 1.20057 31.9553 1.20057H20.4415C13.4262 1.20057 7.7189 6.8488 7.7189 13.7916V19.9525C8.03405 20.0252 8.45281 19.9782 9.00109 19.9013L10.1624 19.7346C13.1369 19.3117 16.215 18.8716 19.2759 18.7007C22.5224 18.517 25.0695 20.1747 26.4467 23.3577C27.1547 24.9941 28.2167 25.6905 29.8961 25.6178C30.3623 25.6008 30.8286 25.605 31.2819 25.6093C31.4675 25.6093 31.6531 25.6136 31.8388 25.6136C32.1194 25.6136 32.4043 25.6136 32.6849 25.6136C33.2462 25.6136 33.829 25.6093 34.4032 25.6221C35.4954 25.6478 36.2768 25.9725 36.7344 26.5962C37.1834 27.2072 37.2611 28.0318 36.9589 29.0358C36.7301 29.8006 36.484 30.5654 36.2423 31.3088C36.1473 31.5951 36.0566 31.8856 35.966 32.1718C34.7485 35.9872 33.2332 37.1493 29.1924 37.3587C21.7367 37.7474 15.0969 43.7033 13.9054 50.9964L13.8967 51.005Z" fill="#9ED0DF"/>
<path d="M68.7204 35.1499V36.4017H64.9343V38.7431H67.9174V39.9522H64.9343V42.3405H68.7204V43.5966H63.3369V35.1499H68.7204Z" fill="#EF674A"/>
<path d="M79.5736 39.2514L76.8538 35.1498H78.4339C78.5461 35.1498 78.6238 35.1626 78.6713 35.1925C78.7188 35.2224 78.7663 35.2694 78.8051 35.3378L80.7478 38.4396C80.7694 38.3883 80.791 38.3413 80.8126 38.2901C80.8342 38.2431 80.8644 38.1918 80.8946 38.1405L82.6733 35.3634C82.7596 35.2181 82.8719 35.1455 83.01 35.1455H84.534L81.784 39.183L84.6117 43.5922H83.023C82.9151 43.5922 82.833 43.5666 82.7683 43.511C82.7035 43.4555 82.6474 43.3957 82.6042 43.3231L80.627 40.0845C80.6097 40.1315 80.5924 40.1742 80.5752 40.217C80.5536 40.2597 80.5363 40.2939 80.5147 40.3323L78.6195 43.3231C78.5763 43.3914 78.5245 43.4512 78.4598 43.5068C78.395 43.5623 78.3173 43.5922 78.2223 43.5922H76.7329L79.5736 39.2471V39.2514Z" fill="#EF674A"/>
<path d="M94.6102 40.6271V43.6008H93.0215V35.1541H95.8017C96.3716 35.1541 96.8681 35.2224 97.2825 35.3549C97.7013 35.4873 98.0423 35.671 98.3143 35.9103C98.5863 36.1495 98.7849 36.4315 98.9144 36.7648C99.0439 37.098 99.1087 37.4569 99.1087 37.85C99.1087 38.2431 99.0396 38.6319 98.9014 38.9737C98.7633 39.3155 98.5561 39.606 98.2798 39.8538C98.0035 40.0973 97.6581 40.2896 97.248 40.4263C96.8335 40.563 96.35 40.6314 95.7974 40.6314H94.6059L94.6102 40.6271ZM94.6102 39.3966H95.8017C96.091 39.3966 96.3457 39.3625 96.5615 39.2898C96.7774 39.2172 96.9587 39.1147 97.0969 38.9822C97.235 38.8498 97.3429 38.6831 97.4163 38.4909C97.4897 38.2986 97.5243 38.085 97.5243 37.8457C97.5243 37.6065 97.4897 37.4142 97.4163 37.2305C97.3429 37.0468 97.2393 36.893 97.0969 36.7648C96.9544 36.6366 96.7774 36.5383 96.5615 36.47C96.3457 36.4016 96.091 36.3674 95.8017 36.3674H94.6102V39.4009V39.3966Z" fill="#EF674A"/>
<path d="M109.414 40.2981V43.6008H107.825V35.1541H110.428C111.011 35.1541 111.508 35.2139 111.926 35.3335C112.341 35.4531 112.682 35.6198 112.95 35.8334C113.217 36.047 113.412 36.3034 113.532 36.6024C113.658 36.9015 113.718 37.2305 113.718 37.5851C113.718 37.8714 113.675 38.1363 113.593 38.3926C113.507 38.6447 113.386 38.8754 113.226 39.0805C113.066 39.2856 112.872 39.4693 112.634 39.6231C112.401 39.7769 112.134 39.9051 111.836 39.9991C112.039 40.1101 112.211 40.2725 112.354 40.4818L114.491 43.6008H113.062C112.924 43.6008 112.807 43.5751 112.712 43.5196C112.617 43.464 112.535 43.3871 112.466 43.2846L110.67 40.5801C110.605 40.4776 110.528 40.4049 110.45 40.3622C110.372 40.3195 110.251 40.2981 110.092 40.2981H109.414ZM109.414 39.1702H110.407C110.705 39.1702 110.968 39.1317 111.188 39.0591C111.413 38.9865 111.594 38.8839 111.737 38.7515C111.879 38.619 111.987 38.4652 112.06 38.2858C112.129 38.1063 112.168 37.9098 112.168 37.6962C112.168 37.2689 112.026 36.94 111.741 36.7092C111.456 36.4785 111.02 36.3632 110.433 36.3632H109.418V39.1659L109.414 39.1702Z" fill="#EF674A"/>
<path d="M128.319 35.1499V36.4017H124.532V38.7431H127.516V39.9522H124.532V42.3405H128.319V43.5966H122.935V35.1499H128.319Z" fill="#EF674A"/>
<path d="M141.697 36.6879C141.654 36.7733 141.602 36.8331 141.546 36.8673C141.49 36.9015 141.421 36.9186 141.343 36.9186C141.266 36.9186 141.175 36.8887 141.08 36.8289C140.981 36.7691 140.864 36.7007 140.73 36.6281C140.596 36.5554 140.441 36.4871 140.26 36.4273C140.078 36.3674 139.867 36.3375 139.625 36.3375C139.405 36.3375 139.215 36.3632 139.051 36.4144C138.887 36.4657 138.749 36.5383 138.636 36.6323C138.524 36.7263 138.442 36.8374 138.386 36.9699C138.33 37.1023 138.304 37.2433 138.304 37.4014C138.304 37.6022 138.36 37.7645 138.472 37.897C138.585 38.0294 138.731 38.1405 138.917 38.2345C139.103 38.3285 139.314 38.4097 139.547 38.4866C139.785 38.5592 140.027 38.6404 140.273 38.7216C140.519 38.807 140.76 38.901 140.994 39.0121C141.231 39.1232 141.438 39.2642 141.624 39.4308C141.81 39.5974 141.956 39.8068 142.069 40.0546C142.181 40.2981 142.237 40.5972 142.237 40.9475C142.237 41.3278 142.172 41.6867 142.038 42.0199C141.905 42.3532 141.715 42.6437 141.46 42.8915C141.205 43.1393 140.894 43.3316 140.532 43.4769C140.165 43.6179 139.746 43.6905 139.275 43.6905C139.003 43.6905 138.736 43.6649 138.472 43.6136C138.209 43.5623 137.954 43.4854 137.713 43.3871C137.471 43.2889 137.246 43.1735 137.035 43.0368C136.823 42.9001 136.638 42.7505 136.469 42.5796L136.931 41.8277C136.974 41.7721 137.026 41.7294 137.087 41.691C137.147 41.6525 137.216 41.6354 137.29 41.6354C137.389 41.6354 137.492 41.6739 137.609 41.7551C137.721 41.8362 137.859 41.9217 138.015 42.0199C138.17 42.1182 138.352 42.2079 138.563 42.2848C138.775 42.366 139.025 42.4045 139.323 42.4045C139.776 42.4045 140.126 42.2977 140.372 42.084C140.618 41.8704 140.743 41.5671 140.743 41.1697C140.743 40.9476 140.687 40.7681 140.575 40.6271C140.463 40.4861 140.316 40.3708 140.13 40.2725C139.945 40.1742 139.733 40.0973 139.5 40.029C139.262 39.9649 139.025 39.8922 138.779 39.8111C138.533 39.7342 138.295 39.6402 138.058 39.5291C137.821 39.4223 137.613 39.277 137.428 39.1018C137.242 38.9267 137.095 38.7088 136.983 38.4439C136.871 38.179 136.815 37.8585 136.815 37.4697C136.815 37.1621 136.875 36.863 137 36.5682C137.125 36.2777 137.307 36.0171 137.544 35.7907C137.782 35.5642 138.075 35.3848 138.421 35.248C138.766 35.1113 139.163 35.043 139.608 35.043C140.113 35.043 140.575 35.1199 141.002 35.278C141.425 35.4318 141.788 35.6539 142.09 35.9316L141.702 36.6751L141.697 36.6879Z" fill="#EF674A"/>
<path d="M155.456 36.6879C155.413 36.7733 155.361 36.8331 155.305 36.8673C155.249 36.9015 155.18 36.9186 155.102 36.9186C155.024 36.9186 154.934 36.8887 154.839 36.8289C154.739 36.7691 154.623 36.7007 154.489 36.6281C154.355 36.5554 154.2 36.4871 154.018 36.4273C153.837 36.3674 153.626 36.3375 153.384 36.3375C153.164 36.3375 152.974 36.3632 152.81 36.4144C152.646 36.4657 152.507 36.5383 152.395 36.6323C152.283 36.7263 152.201 36.8374 152.145 36.9699C152.089 37.1023 152.063 37.2433 152.063 37.4014C152.063 37.6022 152.119 37.7645 152.231 37.897C152.343 38.0294 152.49 38.1405 152.676 38.2345C152.861 38.3285 153.073 38.4097 153.306 38.4866C153.544 38.5592 153.785 38.6404 154.031 38.7216C154.278 38.807 154.519 38.901 154.752 39.0121C154.99 39.1232 155.197 39.2642 155.383 39.4308C155.568 39.5974 155.715 39.8068 155.827 40.0546C155.94 40.2981 155.996 40.5972 155.996 40.9475C155.996 41.3278 155.931 41.6867 155.797 42.0199C155.663 42.3532 155.473 42.6437 155.219 42.8915C154.964 43.1393 154.653 43.3316 154.29 43.4769C153.924 43.6179 153.505 43.6905 153.034 43.6905C152.762 43.6905 152.495 43.6649 152.231 43.6136C151.968 43.5623 151.713 43.4854 151.471 43.3871C151.23 43.2889 151.005 43.1735 150.794 43.0368C150.582 42.9001 150.396 42.7505 150.228 42.5796L150.69 41.8277C150.733 41.7721 150.785 41.7294 150.845 41.691C150.906 41.6525 150.975 41.6354 151.048 41.6354C151.148 41.6354 151.251 41.6739 151.368 41.7551C151.48 41.8362 151.618 41.9217 151.774 42.0199C151.929 42.1182 152.11 42.2079 152.322 42.2848C152.533 42.366 152.784 42.4045 153.082 42.4045C153.535 42.4045 153.885 42.2977 154.131 42.084C154.377 41.8704 154.502 41.5671 154.502 41.1697C154.502 40.9476 154.446 40.7681 154.334 40.6271C154.221 40.4861 154.075 40.3708 153.889 40.2725C153.703 40.1742 153.492 40.0973 153.259 40.029C153.021 39.9649 152.784 39.8922 152.538 39.8111C152.292 39.7342 152.054 39.6402 151.817 39.5291C151.579 39.4223 151.372 39.277 151.186 39.1018C151.001 38.9267 150.854 38.7088 150.742 38.4439C150.63 38.179 150.573 37.8585 150.573 37.4697C150.573 37.1621 150.634 36.863 150.759 36.5682C150.884 36.2777 151.066 36.0171 151.303 35.7907C151.54 35.5642 151.834 35.3848 152.179 35.248C152.525 35.1113 152.922 35.043 153.367 35.043C153.872 35.043 154.334 35.1199 154.761 35.278C155.184 35.4318 155.547 35.6539 155.849 35.9316L155.46 36.6751L155.456 36.6879Z" fill="#EF674A"/>
<path d="M-0.000188506 29.6383C-0.0217742 28.3309 1.12659 27.5106 2.08068 26.7458C2.55988 26.3869 3.0693 26.0622 3.59168 25.7845C4.83501 25.1137 6.19491 24.7676 7.45984 24.2806C8.40098 23.9345 9.29031 23.3748 10.1192 22.9561C10.4084 22.8194 10.6588 22.7425 10.879 22.7553C11.7424 22.8151 12.0015 24.2464 12.1569 25.1223C12.6534 28.442 12.7786 33.757 11.9065 36.5084C11.5913 37.4227 11.0647 37.8286 10.2185 37.7603C8.73771 37.5979 7.25693 36.9613 5.73298 36.1581C3.66938 35.0302 1.5324 33.3596 0.392672 31.0396C0.189766 30.6081 0.0170801 30.1382 0.00412864 29.6468L-0.000188506 29.6383Z" fill="#55AD8B"/>
</g>
<defs>
<clipPath id="clip0_227_2854">
<rect width="156" height="54" fill="white"/>
</clipPath>
</defs>
</svg>
