<svg width="96" height="126" viewBox="0 0 96 126" fill="none" xmlns="http://www.w3.org/2000/svg">
<g id="London">
<path id="Ellipse 32" d="M36.1732 123.48C29.273 121.676 22.8312 118.305 17.3802 113.57C9.1226 106.398 3.6668 96.5573 1.97143 85.7761C0.27606 74.9949 2.44958 63.9635 8.11009 54.6202C13.7706 45.2769 22.5559 38.2194 32.9225 34.6879C34.8643 34.1252 39.5233 33 42.624 33M36.1732 123.48V86.6532M36.1732 123.48C38.1699 124.002 40.205 124.393 42.2656 124.647M36.1732 86.6532H59.468M36.1732 86.6532H33.231C32.6787 86.6532 32.231 86.2055 32.231 85.6532V56.5491M59.468 86.6532V123.572M59.468 86.6532H62.7685C63.3208 86.6532 63.7685 86.2055 63.7685 85.6532V56.5491M59.468 123.572C65.9307 121.937 72.014 118.927 77.2763 114.693C85.799 107.836 91.6227 98.2062 93.7242 87.4962C95.8257 76.7862 94.0705 65.6812 88.767 56.1323C83.4634 46.5834 74.951 39.2017 64.7252 35.2841C62.9728 34.6451 58.3211 33.3803 53.7339 33.4335M59.468 123.572C57.5852 124.048 55.6702 124.408 53.7339 124.647M42.2656 90.237V103.855M47.9998 90.237V103.855M53.7339 90.237V103.855M42.2656 107.798V124.647M42.2656 124.647C43.8713 124.846 45.4925 124.961 47.123 124.992C47.4155 124.997 47.7077 125 47.9998 125M47.9998 107.798V125M47.9998 125C49.9247 125 51.8395 124.881 53.7339 124.647M53.7339 107.798V124.647M32.231 56.5491H63.7685M32.231 56.5491H28.9304C28.3781 56.5491 27.9304 56.1014 27.9304 55.5491V52.5318C27.9304 51.9795 28.3781 51.5318 28.9304 51.5318H34.0229M63.7685 56.5491H67.0691C67.6214 56.5491 68.0691 56.1014 68.0691 55.5491V52.5318C68.0691 51.9795 67.6214 51.5318 67.0691 51.5318H62.335M34.0229 51.5318V43.289M34.0229 51.5318H62.335M34.0229 43.289H62.335M34.0229 43.289L39.8266 37.8267C40.0121 37.6521 40.2572 37.5549 40.5119 37.5549H42.624M34.0229 43.289H31.5142M62.335 43.289V51.5318M62.335 43.289L56.1683 37.8075C55.9853 37.6448 55.7489 37.5549 55.5039 37.5549H53.7339M62.335 43.289H64.7252M42.624 37.5549H53.7339M42.624 37.5549V33M53.7339 37.5549V33.4335M47.9998 15.6936L55.0151 27.8111C55.4011 28.4778 54.92 29.3121 54.1497 29.3121H41.8498C41.0795 29.3121 40.5984 28.4778 40.9844 27.8111L47.9998 15.6936ZM47.9998 15.6936V1M39.3986 46.5145V49.0231M43.6992 46.5145V49.0231M47.9998 46.5145V49.0231M52.3003 46.5145V49.0231M56.6009 46.5145V49.0231M47.9998 64.7919V69.8092M42.624 33V30.3121C42.624 29.7599 43.0717 29.3121 43.624 29.3121H52.7339C53.2861 29.3121 53.7339 29.7599 53.7339 30.3121V33.4335" stroke="white" stroke-width="2" stroke-linecap="round"/>
<circle id="Ellipse 33" cx="48" cy="71.2428" r="10.7514" stroke="white" stroke-width="2"/>
<circle id="Ellipse 34" cx="47.9999" cy="71.9595" r="2.15029" fill="white"/>
</g>
</svg>
