<svg width="108" height="126" viewBox="0 0 108 126" fill="none" xmlns="http://www.w3.org/2000/svg">
<g id="NewYork">
<g id="Group 1000005842">
<path id="Ellipse 30" d="M62.3995 56.2642C62.3995 55.1269 62.1888 54.0389 61.8043 53.0371M62.3995 56.2642H69.7949M62.3995 56.2642C62.4437 57.564 61.5382 60.1636 58.6345 60.1636M53.3905 47.2552V40.6665M53.3905 47.2552C55.4668 47.2552 57.379 47.9575 58.9025 49.1376M53.3905 47.2552C51.0875 47.2552 48.9863 48.1193 47.3936 49.541M63.7441 44.5659L58.9025 49.1376M58.9025 49.1376C60.1955 50.1392 61.2085 51.4847 61.8043 53.0371M68.4503 50.4823L61.8043 53.0371M42.499 44.1625L47.3936 49.541M47.3936 49.541C46.3317 50.4888 45.4958 51.6845 44.9767 53.0371M38.5996 50.8857L44.9767 53.0371M44.9767 53.0371C44.5922 54.0389 44.3815 55.1269 44.3815 56.2642C44.5737 57.7059 44.9721 59.0788 46.264 59.7448M48.2809 60.1636C47.4372 60.1636 46.7795 60.0105 46.264 59.7448M46.264 59.7448L44.9767 66.7523" stroke="white" stroke-width="2" stroke-linecap="round"/>
<path id="Vector 3" d="M39.2722 122.958L41.2892 116.369L55.5422 85.9804M55.5422 85.9804L66.0303 75.8957M55.5422 85.9804L43.4377 97.1537C43.3507 97.2341 43.2786 97.3293 43.2248 97.4349L35.7762 112.066M66.0303 75.8957L68.3703 77.1827C68.5945 77.306 68.763 77.5107 68.8409 77.7545L72.807 90.1645C72.86 90.3304 72.9554 90.4795 73.0838 90.5972L76.115 93.3758M66.0303 75.8957L62.6687 73.7443M76.115 93.3758L67.9906 107.213C67.721 107.672 67.8586 108.262 68.3036 108.554L76.518 113.956C76.9682 114.252 77.572 114.138 77.8835 113.698L81.8969 108.032M76.115 93.3758L80.0041 87.7189C80.3097 87.2744 80.9128 87.1524 81.3672 87.4432L89.8094 92.8462C90.2688 93.1402 90.4079 93.7481 90.122 94.2126L88.4855 96.8718M81.8969 108.032C80.6419 107.36 78.8849 104.886 81.8969 100.368C84.9088 95.8499 87.5443 96.1547 88.4855 96.8718M81.8969 108.032C82.5244 108.66 84.613 108.92 87.9477 104.94C91.2824 100.96 89.6957 97.9027 88.4855 96.8718M81.8969 108.032L81.3562 117.714M35.7762 112.066L33.7593 120.537M35.7762 112.066L32.0491 106.475C31.8582 106.189 31.828 105.825 31.969 105.511L37.1208 94.0481M37.1208 94.0481L62.6687 73.7443M37.1208 94.0481L44.3818 66.4833M37.1208 94.0481L30.7929 75.7235C30.7116 75.4882 30.7211 75.2311 30.8193 75.0024L34.4789 66.4833M62.6687 73.7443L61.3242 73.2104M44.3818 66.4833L39.8101 56.2641M44.3818 66.4833L49.7268 68.6056M44.3818 56.2641H39.8101M39.8101 56.2641H39.5276C39.1279 56.2641 38.7666 56.5022 38.6088 56.8694L34.4789 66.4833M39.8101 56.2641C38.5103 51.1994 33.7324 39.3756 33.0869 34.7501M33.0869 34.7501V30.1784M33.0869 34.7501C32.9973 35.781 32.3877 37.9234 30.6666 38.2461C30.0774 38.3566 29.5869 38.1761 29.1876 37.8458M33.0869 30.1784C33.087 28.2959 32.1459 27.4891 30.3978 27.4891C27.9143 27.4891 27.7533 30.3577 27.8429 31.9264M33.0869 30.1784C33.7175 28.9747 33.8781 28.2722 33.9567 27.2202M27.8429 31.9264V35.1889C27.8429 35.2548 27.849 35.3203 27.8633 35.3845C28.0276 36.125 28.4534 37.2385 29.1876 37.8458M27.8429 31.9264V22.7557M27.8429 22.7557V17.8078M27.8429 22.7557C29.9475 21.0699 31.8876 21.7435 33.356 22.7557M27.8429 17.8078C26.4086 18.0319 23.5132 17.5658 23.4056 13.9084C23.2981 10.251 26.319 9.51596 27.8429 9.6056M27.8429 17.8078H33.356M27.8429 9.6056H34.0283M27.8429 9.6056C26.4888 8.07687 25.1433 4.31774 30.2523 1.24009C30.5104 1.08457 30.8308 1.0616 31.1025 1.19203C33.3579 2.27469 36.5498 5.16787 34.0283 9.6056M34.0283 9.6056C35.1936 9.74006 37.5512 10.7889 37.6588 13.9084C37.7663 17.0279 35.2833 17.8078 34.0283 17.8078H33.356M29.1876 37.8458V46.9865C29.1876 47.0756 29.1995 47.1642 29.223 47.2501L34.4789 66.4833M49.7268 64.1974C49.1494 63.2694 48.7633 62.1419 48.516 60.9703C48.2201 59.5687 48.1228 58.1042 48.1339 56.8431C48.1371 56.4848 48.3424 56.1612 48.6595 55.9943L52.8181 53.8056C53.0943 53.6602 53.4225 53.6522 53.7056 53.7838L58.4414 55.9865C58.8036 56.155 59.0327 56.5227 59.0086 56.9215C58.9534 57.8366 58.829 58.984 58.5899 60.1636M49.7268 64.1974C50.5088 65.4541 51.6418 66.3449 53.2564 66.4833C55.0398 66.6362 56.289 65.6498 57.1576 64.1974M49.7268 64.1974V68.6056M49.7268 68.6056L57.1576 71.556M57.1576 64.1974V71.556M57.1576 64.1974C57.8522 63.0361 58.3034 61.5767 58.5899 60.1636M57.1576 71.556L61.3242 73.2104M58.5899 60.1636L61.3242 73.2104M33.356 17.8078V22.7557M33.356 22.7557C33.4873 23.0785 33.6056 23.4009 33.7079 23.7242M32.0113 23.0519C32.47 23.0967 33.4515 23.2939 33.7079 23.7242M33.7079 23.7242C33.8066 24.0365 33.8276 24.4843 33.8938 24.7999M32.0113 24.1276C32.5463 24.1276 33.6214 24.3696 33.8938 24.7999M33.8938 24.7999C33.9591 25.1109 33.9997 25.5587 34.0283 25.8756M32.0113 25.3377C32.5514 25.2929 33.6544 25.5529 34.0283 25.8756M34.0283 25.8756C34.0641 26.2725 33.9874 26.8095 33.9567 27.2202M32.0113 26.4134C32.6478 26.3686 33.8061 26.7899 33.9567 27.2202" stroke="white" stroke-width="2" stroke-linecap="round"/>
</g>
<path id="Ellipse 35" d="M34.6607 23.1835C47.3055 18.6054 62.5508 18.1931 74.9043 23.5074C87.2578 28.8216 97.1236 38.6413 102.496 50.9699C107.867 63.2984 108.342 77.21 103.823 89.8761C99.3046 102.542 90.1313 113.012 78.1689 119.156C66.2065 125.3 52.3531 126.658 39.4256 122.952C26.498 119.247 15.4669 110.758 8.57531 99.2096C1.68371 87.6616 -0.551006 73.9224 2.32558 60.7856C5.20216 47.6488 15.6106 34.2075 26.6975 26.5963" stroke="white" stroke-width="2" stroke-linecap="round"/>
</g>
</svg>
