<svg width="24" height="24" viewBox="0 0 24 24" fill="none" xmlns="http://www.w3.org/2000/svg">
<path d="M11.0505 14.95L9.20049 16.8C8.81049 17.19 8.19049 17.19 7.79049 16.81C7.68049 16.7 7.57049 16.6 7.46049 16.49C6.43049 15.45 5.50049 14.36 4.67049 13.22C3.85049 12.08 3.19049 10.94 2.71049 9.81C2.24049 8.67 2.00049 7.58 2.00049 6.54C2.00049 5.86 2.12049 5.21 2.36049 4.61C2.60049 4 2.98049 3.44 3.51049 2.94C4.15049 2.31 4.85049 2 5.59049 2C5.87049 2 6.15049 2.06 6.40049 2.18C6.66049 2.3 6.89049 2.48 7.07049 2.74L9.39049 6.01C9.57049 6.26 9.70049 6.49 9.79049 6.71C9.88049 6.92 9.93049 7.13 9.93049 7.32C9.93049 7.56 9.86049 7.8 9.72049 8.03C9.59049 8.26 9.40049 8.5 9.16049 8.74L8.40049 9.53C8.29049 9.64 8.24049 9.77 8.24049 9.93C8.24049 10.01 8.25049 10.08 8.27049 10.16C8.30049 10.24 8.33049 10.3 8.35049 10.36C8.53049 10.69 8.84049 11.12 9.28049 11.64C9.73049 12.16 10.2105 12.69 10.7305 13.22C10.8305 13.32 10.9405 13.42 11.0405 13.52C11.4405 13.91 11.4505 14.55 11.0505 14.95Z" fill="#084453"/>
<path d="M21.9711 18.33C21.9711 18.61 21.9211 18.9 21.8211 19.18C21.7911 19.26 21.7611 19.34 21.7211 19.42C21.5511 19.78 21.3311 20.12 21.0411 20.44C20.5511 20.98 20.0111 21.37 19.4011 21.62C19.3911 21.62 19.3811 21.63 19.3711 21.63C18.7811 21.87 18.1411 22 17.4511 22C16.4311 22 15.3411 21.76 14.1911 21.27C13.0411 20.78 11.8911 20.12 10.7511 19.29C10.3611 19 9.97107 18.71 9.60107 18.4L12.8711 15.13C13.1511 15.34 13.4011 15.5 13.6111 15.61C13.6611 15.63 13.7211 15.66 13.7911 15.69C13.8711 15.72 13.9511 15.73 14.0411 15.73C14.2111 15.73 14.3411 15.67 14.4511 15.56L15.2111 14.81C15.4611 14.56 15.7011 14.37 15.9311 14.25C16.1611 14.11 16.3911 14.04 16.6411 14.04C16.8311 14.04 17.0311 14.08 17.2511 14.17C17.4711 14.26 17.7011 14.39 17.9511 14.56L21.2611 16.91C21.5211 17.09 21.7011 17.3 21.8111 17.55C21.9111 17.8 21.9711 18.05 21.9711 18.33Z" fill="#084453"/>
</svg>
