<svg width="60" height="60" viewBox="0 0 60 60" fill="none" xmlns="http://www.w3.org/2000/svg">
<path d="M19.1249 52.275C19.0499 52.275 18.9499 52.325 18.8749 52.325C14.0249 49.925 10.0749 45.95 7.6499 41.1C7.6499 41.025 7.6999 40.925 7.6999 40.85C10.7499 41.75 13.8999 42.425 17.0249 42.95C17.5749 46.1 18.2249 49.225 19.1249 52.275Z" fill="#55AD8B"/>
<path d="M52.3501 41.125C49.8751 46.1 45.7501 50.125 40.7251 52.55C41.6751 49.375 42.4751 46.175 43.0001 42.95C46.1501 42.425 49.2501 41.75 52.3001 40.85C52.2751 40.95 52.3501 41.05 52.3501 41.125Z" fill="#55AD8B"/>
<path d="M52.5501 19.275C49.4001 18.325 46.2251 17.55 43.0001 17C42.4751 13.775 41.7001 10.575 40.7251 7.45001C45.9001 9.92501 50.0751 14.1 52.5501 19.275Z" fill="#55AD8B"/>
<path d="M19.1252 7.72499C18.2252 10.775 17.5752 13.875 17.0502 17.025C13.8252 17.525 10.6252 18.325 7.4502 19.275C9.8752 14.25 13.9002 10.125 18.8752 7.64999C18.9502 7.64999 19.0502 7.72499 19.1252 7.72499Z" fill="#55AD8B"/>
<path d="M38.7249 16.475C32.9249 15.825 27.0749 15.825 21.2749 16.475C21.8999 13.05 22.6999 9.625 23.8249 6.325C23.8749 6.125 23.8499 5.975 23.8749 5.775C25.8499 5.3 27.8749 5 29.9999 5C32.0999 5 34.1499 5.3 36.0999 5.775C36.1249 5.975 36.1249 6.125 36.1749 6.325C37.2999 9.65 38.0999 13.05 38.7249 16.475Z" fill="#55AD8B"/>
<path d="M16.475 38.725C13.025 38.1 9.625 37.3 6.325 36.175C6.125 36.125 5.975 36.15 5.775 36.125C5.3 34.15 5 32.125 5 30C5 27.9 5.3 25.85 5.775 23.9C5.975 23.875 6.125 23.875 6.325 23.825C9.65 22.725 13.025 21.9 16.475 21.275C15.85 27.075 15.85 32.925 16.475 38.725Z" fill="#55AD8B"/>
<path d="M54.9999 30C54.9999 32.125 54.6999 34.15 54.2249 36.125C54.0249 36.15 53.8749 36.125 53.6749 36.175C50.3499 37.275 46.9499 38.1 43.5249 38.725C44.1749 32.925 44.1749 27.075 43.5249 21.275C46.9499 21.9 50.3749 22.7 53.6749 23.825C53.8749 23.875 54.0249 23.9 54.2249 23.9C54.6999 25.875 54.9999 27.9 54.9999 30Z" fill="#55AD8B"/>
<path d="M38.7249 43.525C38.0999 46.975 37.2999 50.375 36.1749 53.675C36.1249 53.875 36.1249 54.025 36.0999 54.225C34.1499 54.7 32.0999 55 29.9999 55C27.8749 55 25.8499 54.7 23.8749 54.225C23.8499 54.025 23.8749 53.875 23.8249 53.675C22.7249 50.35 21.8999 46.975 21.2749 43.525C24.1749 43.85 27.0749 44.075 29.9999 44.075C32.9249 44.075 35.8499 43.85 38.7249 43.525Z" fill="#55AD8B"/>
<path d="M39.4083 39.4083C33.1556 40.1972 26.8444 40.1972 20.5917 39.4083C19.8028 33.1556 19.8028 26.8444 20.5917 20.5917C26.8444 19.8028 33.1556 19.8028 39.4083 20.5917C40.1972 26.8444 40.1972 33.1556 39.4083 39.4083Z" fill="#55AD8B"/>
</svg>
