<svg width="29" height="28" viewBox="0 0 29 28" fill="none" xmlns="http://www.w3.org/2000/svg">
<path d="M19.1867 2.3335H9.77166C7.93201 2.33566 6.16834 3.0675 4.86761 4.36844C3.56689 5.66938 2.83535 7.43317 2.8335 9.27283L2.8335 18.6878C2.83566 20.5275 3.5675 22.2912 4.86844 23.5919C6.16938 24.8926 7.93317 25.6241 9.77283 25.626H19.1878C21.0275 25.6238 22.7912 24.892 24.0919 23.5911C25.3926 22.2901 26.1241 20.5263 26.126 18.6867V9.27166C26.1238 7.43201 25.392 5.66834 24.0911 4.36761C22.7901 3.06689 21.0263 2.33535 19.1867 2.3335V2.3335ZM23.7833 18.6867C23.7833 19.2903 23.6644 19.888 23.4334 20.4457C23.2024 21.0034 22.8638 21.5102 22.437 21.937C22.0102 22.3638 21.5034 22.7024 20.9457 22.9334C20.388 23.1644 19.7903 23.2833 19.1867 23.2833H9.77166C8.55275 23.283 7.38387 22.7986 6.52208 21.9366C5.66029 21.0746 5.17616 19.9056 5.17616 18.6867V9.27166C5.17647 8.05275 5.6609 6.88387 6.52291 6.02208C7.38492 5.16029 8.55392 4.67616 9.77283 4.67616H19.1878C20.4067 4.67647 21.5756 5.1609 22.4374 6.02291C23.2992 6.88492 23.7833 8.05392 23.7833 9.27283V18.6878V18.6867Z" fill="#084453"/>
<path d="M14.4789 7.95557C12.8822 7.95804 11.3517 8.59348 10.2228 9.72261C9.09385 10.8517 8.4587 12.3824 8.45654 13.9791C8.45839 15.5761 9.09357 17.1073 10.2228 18.2367C11.352 19.3661 12.883 20.0016 14.48 20.0037C16.0773 20.0019 17.6086 19.3665 18.7381 18.2371C19.8675 17.1077 20.5029 15.5763 20.5047 13.9791C20.5022 12.382 19.8665 10.8511 18.7368 9.72213C17.6072 8.59315 16.0759 7.95828 14.4789 7.95673V7.95557ZM14.4789 17.6611C13.5027 17.6611 12.5664 17.2733 11.8761 16.583C11.1858 15.8927 10.798 14.9565 10.798 13.9802C10.798 13.004 11.1858 12.0678 11.8761 11.3775C12.5664 10.6872 13.5027 10.2994 14.4789 10.2994C15.4551 10.2994 16.3913 10.6872 17.0816 11.3775C17.7719 12.0678 18.1597 13.004 18.1597 13.9802C18.1597 14.9565 17.7719 15.8927 17.0816 16.583C16.3913 17.2733 15.4551 17.6611 14.4789 17.6611Z" fill="#084453"/>
<path d="M20.5154 9.44395C21.3125 9.44395 21.9586 8.79782 21.9586 8.00078C21.9586 7.20374 21.3125 6.55762 20.5154 6.55762C19.7184 6.55762 19.0723 7.20374 19.0723 8.00078C19.0723 8.79782 19.7184 9.44395 20.5154 9.44395Z" fill="#084453"/>
</svg>
