<svg width="29" height="28" viewBox="0 0 29 28" fill="none" xmlns="http://www.w3.org/2000/svg">
<path d="M26.119 16.0056V24.6144H21.128V16.5819C21.128 14.5636 20.4058 13.1869 18.5998 13.1869C17.2208 13.1869 16.3995 14.1156 16.039 15.0128C15.9072 15.3336 15.8733 15.7804 15.8733 16.2296V24.6144H10.88C10.88 24.6144 10.9477 11.0111 10.88 9.6006H15.8733V11.7286L15.8407 11.7776H15.8733V11.7286C16.536 10.7078 17.7202 9.24827 20.372 9.24827C23.6562 9.24827 26.119 11.3949 26.119 16.0056ZM5.658 2.36377C3.95116 2.36377 2.8335 3.48377 2.8335 4.95727C2.8335 6.3981 3.9185 7.55194 5.59266 7.55194H5.62533C7.36716 7.55194 8.44866 6.3981 8.44866 4.95727C8.41833 3.48377 7.36833 2.36377 5.65916 2.36377H5.658ZM3.12983 24.6144H8.12083V9.6006H3.12983V24.6144Z" fill="#084453"/>
</svg>
