<svg width="191" height="66" viewBox="0 0 191 66" fill="none" xmlns="http://www.w3.org/2000/svg">
<g id="Artboard 47" clip-path="url(#clip0_227_2820)">
<g id="Group">
<path id="Vector" d="M81.7371 26.8042V34.0732H77.8672V13.4204H84.6396C86.0277 13.4204 87.2318 13.5823 88.2466 13.906C89.2614 14.2298 90.1027 14.6841 90.7652 15.2638C91.4277 15.8434 91.9167 16.5379 92.2322 17.3473C92.5477 18.1567 92.7054 19.0444 92.7054 20.0053C92.7054 20.9661 92.5372 21.9217 92.2007 22.752C91.8641 23.5875 91.3594 24.3029 90.6916 24.9034C90.0186 25.504 89.1825 25.9687 88.173 26.3029C87.1687 26.6371 85.9856 26.8042 84.6343 26.8042H81.7319H81.7371ZM81.7371 23.8016H84.6396C85.3494 23.8016 85.9699 23.7128 86.4957 23.5353C87.0215 23.3577 87.4579 23.1071 87.8049 22.7781C88.1519 22.4491 88.4096 22.047 88.5831 21.5771C88.7566 21.1071 88.8408 20.5797 88.8408 20C88.8408 19.4204 88.7566 18.9504 88.5831 18.5014C88.4096 18.0523 88.1519 17.6711 87.8049 17.3577C87.4579 17.0444 87.0215 16.8042 86.4957 16.6371C85.9699 16.47 85.3494 16.3865 84.6396 16.3865H81.7371V23.7964V23.8016Z" fill="#55AD8B"/>
<path id="Vector_2" d="M110.814 13.4204V16.4752H101.597V22.2037H108.858V25.1593H101.597V31.0027H110.814V34.0732H97.7007V13.4204H110.814Z" fill="#55AD8B"/>
<path id="Vector_3" d="M130.805 13.4204V16.5745H124.548V34.0679H120.678V16.5797H114.395V13.4256H130.805V13.4204Z" fill="#55AD8B"/>
<path id="Vector_4" d="M151.154 26.731C151.154 27.8902 151.012 28.9398 150.723 29.8746C150.434 30.8093 150.008 31.603 149.435 32.261C148.867 32.919 148.152 33.4203 147.3 33.7754C146.448 34.1252 145.454 34.3028 144.324 34.3028C143.808 34.3028 143.298 34.2714 142.799 34.2088C142.299 34.1461 141.779 34.0469 141.232 33.9163L141.432 31.6291C141.453 31.4203 141.532 31.2532 141.668 31.1226C141.805 30.9921 142.01 30.9294 142.278 30.9294C142.441 30.9294 142.657 30.9607 142.92 31.0286C143.183 31.0965 143.514 31.1278 143.919 31.1278C144.466 31.1278 144.949 31.0495 145.37 30.8928C145.791 30.7362 146.143 30.4855 146.427 30.1409C146.711 29.7962 146.921 29.3524 147.068 28.8041C147.21 28.2558 147.284 27.5926 147.284 26.8093V13.415H151.154V26.7257V26.731Z" fill="#55AD8B"/>
<path id="Vector_5" d="M170.451 13.4204V16.4752H161.234V22.2037H168.495V25.1593H161.234V31.0027H170.451V34.0732H157.337V13.4204H170.451Z" fill="#55AD8B"/>
<path id="Vector_6" d="M190.437 13.4204V16.5745H184.18V34.0679H180.31V16.5797H174.026V13.4256H190.437V13.4204Z" fill="#55AD8B"/>
</g>
<g id="Group_2">
<path id="Vector_7" d="M26.2589 32.0105C26.2694 33.1959 25.3177 34.1671 24.1294 34.1776C22.9253 34.1932 21.9525 33.2637 21.9315 32.0784C21.9105 30.9034 22.8832 29.906 24.061 29.8956C25.2598 29.8851 26.2484 30.8355 26.2589 32.0053V32.0105Z" fill="#55AD8B"/>
<g id="Group_3">
<path id="Vector_8" d="M39.4199 0.736328H25.3967C16.4317 0.736328 9.16504 7.95304 9.16504 16.8564V24.8617C9.81704 25.2951 10.6531 25.1854 11.5732 25.0549C15.7113 24.47 19.8547 23.8277 24.0243 23.5927C27.8206 23.3839 30.5496 25.3943 32.0323 28.8408C32.9946 31.0705 34.5247 32.1515 36.9434 32.047C37.7216 32.0157 38.4998 32.047 39.2727 32.047C40.3085 32.047 41.3444 32.0314 42.3802 32.0523C44.5413 32.0993 45.4036 33.2533 44.7989 35.2794C44.4151 36.5588 43.9944 37.8329 43.5896 39.1019C42.2014 43.4726 40.6188 44.6893 36.0074 44.9295C26.3957 45.4308 17.9039 53.269 16.6262 62.705C19.1554 64.3238 22.1682 65.2637 25.4019 65.2637H39.4252C48.3902 65.2637 55.6568 58.047 55.6568 49.1436V16.8617C55.6568 7.95826 48.3902 0.74155 39.4252 0.74155L39.4199 0.736328Z" fill="#084453"/>
<path id="Vector_9" d="M39.42 66H25.3967C22.1262 66 18.9556 65.0757 16.2214 63.3264L15.8271 63.0705L15.8902 62.6057C17.2204 52.799 26.0382 44.7102 35.9707 44.1932C40.2928 43.9687 41.5863 42.9765 42.885 38.8825C42.9955 38.5274 43.1111 38.1775 43.2268 37.8225C43.516 36.9191 43.8157 35.9896 44.0891 35.0705C44.2469 34.5431 44.3678 33.8225 44.0418 33.3734C43.7053 32.9138 42.9429 32.8042 42.3645 32.7885C41.6862 32.7728 40.9869 32.7781 40.3139 32.7781C39.9668 32.7781 39.6198 32.7781 39.2728 32.7781C39.0414 32.7781 38.81 32.7781 38.5839 32.7728C38.0529 32.7676 37.506 32.7572 36.975 32.7833C34.2986 32.8982 32.4583 31.7023 31.3489 29.1279C30.3498 26.8094 28.2676 24.094 24.0612 24.3238C20.4016 24.5274 16.6841 25.0601 13.0929 25.577L11.6732 25.7807C10.7215 25.9164 9.64884 26.0679 8.74971 25.4726L8.41846 25.2533V16.8564C8.42372 7.56136 16.0374 0 25.3967 0H39.42C48.7793 0 56.393 7.56136 56.393 16.8564V49.1384C56.393 58.4334 48.7793 65.9948 39.42 65.9948V66ZM17.4255 62.3394C19.8232 63.7755 22.5679 64.5274 25.3967 64.5274H39.42C47.9643 64.5274 54.9155 57.624 54.9155 49.1384V16.8564C54.9155 8.37076 47.9643 1.46736 39.42 1.46736H25.3967C16.8524 1.46736 9.90123 8.37076 9.90123 16.8564V24.3864C10.2851 24.4752 10.7951 24.4178 11.4629 24.3238L12.8773 24.1201C16.5001 23.6031 20.2491 23.0653 23.9771 22.8564C27.9311 22.6319 31.0334 24.658 32.7107 28.5483C33.573 30.5483 34.8665 31.3995 36.9119 31.3107C37.4798 31.2898 38.0476 31.295 38.5997 31.3003C38.8258 31.3003 39.0519 31.3055 39.278 31.3055C39.6198 31.3055 39.9668 31.3055 40.3086 31.3055C40.9921 31.3055 41.702 31.3003 42.4013 31.3159C43.7316 31.3473 44.6833 31.7441 45.2407 32.5065C45.7875 33.2533 45.8821 34.2611 45.5141 35.4883C45.2354 36.423 44.9357 37.3577 44.6412 38.2663C44.5256 38.6162 44.4151 38.9713 44.3047 39.3211C42.8219 43.9843 40.9764 45.4047 36.0548 45.6606C26.9742 46.1358 18.8873 53.4151 17.436 62.329L17.4255 62.3394Z" fill="#084453"/>
</g>
<path id="Vector_10" d="M17.2049 63.953L16.2269 63.3263C12.8986 61.201 10.4062 57.9739 9.21791 54.2402C8.6921 52.6005 8.4292 50.8825 8.4292 49.1436V23.4934L9.58071 24.2558C9.97507 24.5169 10.5903 24.4543 11.4736 24.3289L12.888 24.1253C16.5108 23.6083 20.2598 23.0705 23.9878 22.8616C27.9419 22.637 31.0441 24.6631 32.7214 28.5535C33.5838 30.5535 34.8772 31.3994 36.9226 31.3159C37.4905 31.295 38.0584 31.3002 38.6105 31.3054C38.8366 31.3054 39.0627 31.3107 39.2887 31.3107C39.6305 31.3107 39.9723 31.3107 40.3193 31.3107C41.0029 31.3107 41.7127 31.3054 42.412 31.3211C43.7423 31.3524 44.694 31.7493 45.2514 32.5117C45.7982 33.2584 45.8929 34.2663 45.5248 35.4934C45.2461 36.4282 44.9412 37.3629 44.652 38.2715C44.5363 38.6214 44.4259 38.9765 44.3155 39.3263C42.8327 43.9895 40.9871 45.4099 36.0656 45.6658C26.8219 46.1462 18.6141 53.6762 17.3784 62.8041L17.2207 63.953H17.2049ZM9.90671 25.8799V49.1383C9.90671 50.7258 10.1486 52.2924 10.6271 53.7911C11.5998 56.8407 13.519 59.5143 16.0849 61.436C17.9305 52.1618 26.4381 44.6945 35.9709 44.1984C40.293 43.9738 41.5865 42.9817 42.8853 38.8877C42.9957 38.5326 43.1114 38.1827 43.227 37.8276C43.5162 36.9242 43.8159 35.9947 44.0894 35.0757C44.2471 34.5483 44.368 33.8276 44.042 33.3785C43.7055 32.919 42.9431 32.8094 42.3647 32.7937C41.6812 32.778 40.9871 32.7832 40.3141 32.7832C39.967 32.7832 39.62 32.7832 39.273 32.7832C39.0416 32.7832 38.8103 32.7832 38.5842 32.778C38.0531 32.7728 37.5063 32.7624 36.9752 32.7885C34.2989 32.9034 32.4585 31.7075 31.3491 29.1331C30.35 26.8146 28.2679 24.0992 24.0614 24.3289C20.4018 24.5326 16.6844 25.0652 13.0931 25.5822L11.6734 25.7859C11.1056 25.8642 10.4956 25.953 9.90146 25.8851L9.90671 25.8799Z" fill="#084453"/>
</g>
<g id="Group_4">
<path id="Vector_11" d="M84.1979 42.9604V44.4905H79.5866V47.3521H83.2199V48.8299H79.5866V51.749H84.1979V53.2842H77.6411V42.9604H84.1979Z" fill="#EF674A"/>
<path id="Vector_12" d="M97.4168 47.9738L94.1043 42.9608H96.0287C96.1654 42.9608 96.2601 42.9765 96.3179 43.013C96.3757 43.0496 96.4336 43.107 96.4809 43.1906L98.847 46.9817C98.8733 46.919 98.8996 46.8616 98.9259 46.7989C98.9522 46.7415 98.989 46.6788 99.0258 46.6161L101.192 43.2219C101.297 43.0443 101.434 42.9556 101.602 42.9556H103.458L100.109 47.8903L103.553 53.2793H101.618C101.487 53.2793 101.387 53.248 101.308 53.1801C101.229 53.1122 101.161 53.0391 101.108 52.9503L98.6998 48.9921C98.6788 49.0496 98.6577 49.1018 98.6367 49.154C98.6104 49.2062 98.5894 49.248 98.5631 49.295L96.2548 52.9503C96.2022 53.0339 96.1391 53.107 96.0603 53.1749C95.9814 53.2428 95.8867 53.2793 95.7711 53.2793H93.957L97.4168 47.9686V47.9738Z" fill="#EF674A"/>
<path id="Vector_13" d="M115.73 49.6551V53.2896H113.795V42.9658H117.182C117.876 42.9658 118.48 43.0494 118.985 43.2113C119.495 43.3731 119.911 43.5977 120.242 43.8901C120.573 44.1825 120.815 44.5272 120.973 44.9345C121.13 45.3418 121.209 45.7804 121.209 46.2609C121.209 46.7413 121.125 47.2165 120.957 47.6342C120.789 48.052 120.536 48.4071 120.2 48.7099C119.863 49.0076 119.443 49.2426 118.943 49.4097C118.438 49.5768 117.849 49.6603 117.176 49.6603H115.725L115.73 49.6551ZM115.73 48.1512H117.182C117.534 48.1512 117.844 48.1094 118.107 48.0207C118.37 47.9319 118.591 47.8066 118.759 47.6447C118.927 47.4828 119.059 47.2791 119.148 47.0441C119.237 46.8092 119.28 46.5481 119.28 46.2556C119.28 45.9632 119.237 45.7282 119.148 45.5037C119.059 45.2791 118.933 45.0911 118.759 44.9345C118.586 44.7778 118.37 44.6577 118.107 44.5742C117.844 44.4906 117.534 44.4489 117.182 44.4489H115.73V48.1564V48.1512Z" fill="#EF674A"/>
<path id="Vector_14" d="M133.76 49.253V53.2896H131.825V42.9658H134.996C135.706 42.9658 136.31 43.0389 136.82 43.1851C137.325 43.3314 137.741 43.535 138.067 43.7961C138.393 44.0572 138.629 44.3705 138.776 44.7361C138.929 45.1016 139.002 45.5037 139.002 45.9371C139.002 46.287 138.95 46.6107 138.85 46.924C138.745 47.2321 138.598 47.5141 138.403 47.7648C138.208 48.0154 137.972 48.24 137.683 48.428C137.399 48.616 137.073 48.7726 136.71 48.8875C136.957 49.0233 137.167 49.2217 137.341 49.4776L139.944 53.2896H138.203C138.035 53.2896 137.893 53.2582 137.777 53.1904C137.662 53.1225 137.562 53.0285 137.478 52.9032L135.29 49.5977C135.211 49.4724 135.117 49.3836 135.022 49.3314C134.927 49.2791 134.78 49.253 134.586 49.253H133.76ZM133.76 47.8744H134.97C135.332 47.8744 135.653 47.8274 135.921 47.7387C136.195 47.6499 136.415 47.5246 136.589 47.3627C136.763 47.2008 136.894 47.0128 136.983 46.7935C137.067 46.5742 137.115 46.334 137.115 46.0729C137.115 45.5507 136.941 45.1486 136.594 44.8666C136.247 44.5846 135.716 44.4436 135.001 44.4436H133.765V47.8692L133.76 47.8744Z" fill="#EF674A"/>
<path id="Vector_15" d="M156.785 42.9604V44.4905H152.174V47.3521H155.807V48.8299H152.174V51.749H156.785V53.2842H150.229V42.9604H156.785Z" fill="#EF674A"/>
<path id="Vector_16" d="M173.08 44.8405C173.027 44.945 172.964 45.0181 172.896 45.0598C172.828 45.1016 172.743 45.1225 172.649 45.1225C172.554 45.1225 172.444 45.086 172.328 45.0128C172.207 44.9397 172.065 44.8562 171.902 44.7674C171.739 44.6786 171.55 44.5951 171.329 44.522C171.108 44.4489 170.851 44.4123 170.556 44.4123C170.288 44.4123 170.057 44.4437 169.857 44.5063C169.657 44.569 169.489 44.6578 169.352 44.7726C169.215 44.8875 169.115 45.0233 169.047 45.1852C168.979 45.3471 168.947 45.5194 168.947 45.7126C168.947 45.958 169.015 46.1564 169.152 46.3183C169.289 46.4802 169.468 46.616 169.694 46.7309C169.92 46.8457 170.177 46.945 170.461 47.039C170.751 47.1277 171.045 47.2269 171.345 47.3262C171.644 47.4306 171.939 47.5455 172.223 47.6813C172.512 47.817 172.764 47.9893 172.991 48.193C173.217 48.3967 173.395 48.6525 173.532 48.9554C173.669 49.2531 173.737 49.6186 173.737 50.0468C173.737 50.5115 173.658 50.9502 173.495 51.3575C173.332 51.7648 173.101 52.1199 172.791 52.4228C172.481 52.7256 172.102 52.9606 171.66 53.1382C171.213 53.3105 170.703 53.3993 170.13 53.3993C169.799 53.3993 169.473 53.3679 169.152 53.3053C168.831 53.2426 168.521 53.1486 168.227 53.0285C167.932 52.9084 167.659 52.7674 167.401 52.6003C167.144 52.4332 166.917 52.2504 166.712 52.0416L167.275 51.1225C167.328 51.0546 167.391 51.0024 167.464 50.9554C167.538 50.9084 167.622 50.8875 167.711 50.8875C167.832 50.8875 167.959 50.9345 168.101 51.0337C168.237 51.133 168.406 51.2374 168.595 51.3575C168.784 51.4776 169.005 51.5873 169.263 51.6813C169.52 51.7805 169.825 51.8275 170.188 51.8275C170.74 51.8275 171.166 51.6969 171.466 51.4358C171.765 51.1747 171.918 50.804 171.918 50.3183C171.918 50.0468 171.85 49.8275 171.713 49.6551C171.576 49.4828 171.397 49.3418 171.171 49.2217C170.945 49.1016 170.688 49.0076 170.404 48.9241C170.114 48.8457 169.825 48.757 169.525 48.6578C169.226 48.5638 168.937 48.4489 168.647 48.3131C168.358 48.1826 168.106 48.005 167.88 47.7909C167.654 47.5768 167.475 47.3105 167.338 46.9867C167.201 46.663 167.133 46.2713 167.133 45.7961C167.133 45.4202 167.207 45.0546 167.359 44.6943C167.512 44.3392 167.732 44.0207 168.022 43.7439C168.311 43.4672 168.668 43.2478 169.089 43.0807C169.51 42.9136 169.993 42.8301 170.535 42.8301C171.15 42.8301 171.713 42.9241 172.233 43.1173C172.749 43.3053 173.19 43.5768 173.558 43.9162L173.085 44.8249L173.08 44.8405Z" fill="#EF674A"/>
<path id="Vector_17" d="M189.838 44.8405C189.785 44.945 189.722 45.0181 189.654 45.0598C189.585 45.1016 189.501 45.1225 189.407 45.1225C189.312 45.1225 189.201 45.086 189.086 45.0128C188.965 44.9397 188.823 44.8562 188.66 44.7674C188.497 44.6786 188.308 44.5951 188.087 44.522C187.866 44.4489 187.608 44.4123 187.314 44.4123C187.046 44.4123 186.814 44.4437 186.615 44.5063C186.415 44.569 186.246 44.6578 186.11 44.7726C185.973 44.8875 185.873 45.0233 185.805 45.1852C185.736 45.3471 185.705 45.5194 185.705 45.7126C185.705 45.958 185.773 46.1564 185.91 46.3183C186.047 46.4802 186.225 46.616 186.452 46.7309C186.678 46.8457 186.935 46.945 187.219 47.039C187.508 47.1277 187.803 47.2269 188.103 47.3262C188.402 47.4306 188.697 47.5455 188.981 47.6813C189.27 47.817 189.522 47.9893 189.748 48.193C189.974 48.3967 190.153 48.6525 190.29 48.9554C190.427 49.2531 190.495 49.6186 190.495 50.0468C190.495 50.5115 190.416 50.9502 190.253 51.3575C190.09 51.7648 189.859 52.1199 189.549 52.4228C189.238 52.7256 188.86 52.9606 188.418 53.1382C187.971 53.3105 187.461 53.3993 186.888 53.3993C186.557 53.3993 186.231 53.3679 185.91 53.3053C185.589 53.2426 185.279 53.1486 184.985 53.0285C184.69 52.9084 184.417 52.7674 184.159 52.6003C183.901 52.4332 183.675 52.2504 183.47 52.0416L184.033 51.1225C184.085 51.0546 184.149 51.0024 184.222 50.9554C184.296 50.9084 184.38 50.8875 184.469 50.8875C184.59 50.8875 184.716 50.9345 184.858 51.0337C184.995 51.133 185.163 51.2374 185.353 51.3575C185.542 51.4776 185.763 51.5873 186.02 51.6813C186.278 51.7805 186.583 51.8275 186.946 51.8275C187.498 51.8275 187.924 51.6969 188.223 51.4358C188.523 51.1747 188.676 50.804 188.676 50.3183C188.676 50.0468 188.607 49.8275 188.471 49.6551C188.334 49.4828 188.155 49.3418 187.929 49.2217C187.703 49.1016 187.445 49.0076 187.161 48.9241C186.872 48.8457 186.583 48.757 186.283 48.6578C185.984 48.5638 185.694 48.4489 185.405 48.3131C185.116 48.1826 184.864 48.005 184.638 47.7909C184.411 47.5768 184.233 47.3105 184.096 46.9867C183.959 46.663 183.891 46.2713 183.891 45.7961C183.891 45.4202 183.964 45.0546 184.117 44.6943C184.269 44.3392 184.49 44.0207 184.779 43.7439C185.069 43.4672 185.426 43.2478 185.847 43.0807C186.267 42.9136 186.751 42.8301 187.293 42.8301C187.908 42.8301 188.471 42.9241 188.991 43.1173C189.506 43.3053 189.948 43.5768 190.316 43.9162L189.843 44.8249L189.838 44.8405Z" fill="#EF674A"/>
</g>
<path id="Vector_18" d="M0.499877 36.2248C0.473587 34.6269 1.87223 33.6242 3.03426 32.6895C3.61791 32.2509 4.23836 31.854 4.87458 31.5146C6.3889 30.6947 8.04519 30.2718 9.5858 29.6765C10.7321 29.2535 11.8152 28.5694 12.8248 28.0577C13.1771 27.8906 13.482 27.7966 13.7502 27.8122C14.8018 27.8853 15.1173 29.6347 15.3066 30.7052C15.9113 34.7626 16.0637 41.2587 15.0016 44.6216C14.6178 45.7391 13.9763 46.2352 12.9457 46.1517C11.1422 45.9532 9.33868 45.1752 7.48258 44.1934C4.96923 42.8148 2.36649 40.7731 0.97836 37.9376C0.731231 37.4102 0.520909 36.8357 0.505135 36.2352L0.499877 36.2248Z" fill="#55AD8B"/>
</g>
<defs>
<clipPath id="clip0_227_2820">
<rect width="190" height="66" fill="white" transform="translate(0.5)"/>
</clipPath>
</defs>
</svg>
