<svg width="60" height="60" viewBox="0 0 60 60" fill="none" xmlns="http://www.w3.org/2000/svg">
<path d="M47.7002 39.3C46.2252 30.475 37.7502 23.3 28.8002 23.3C19.0752 23.3 10.5252 31.175 9.7002 40.875C9.3752 44.625 10.5752 48.175 13.0502 50.85C15.5002 53.525 18.9502 55 22.7002 55H34.4002C38.6252 55 42.3252 53.35 44.8502 50.375C47.3752 47.4 48.3752 43.45 47.7002 39.3Z" fill="#55AD8B"/>
<path d="M25.7 19.65C29.7455 19.65 33.025 16.3705 33.025 12.325C33.025 8.27951 29.7455 5 25.7 5C21.6545 5 18.375 8.27951 18.375 12.325C18.375 16.3705 21.6545 19.65 25.7 19.65Z" fill="#55AD8B"/>
<path d="M42.35 22.575C45.7189 22.575 48.45 19.8439 48.45 16.475C48.45 13.1061 45.7189 10.375 42.35 10.375C38.9811 10.375 36.25 13.1061 36.25 16.475C36.25 19.8439 38.9811 22.575 42.35 22.575Z" fill="#55AD8B"/>
<path d="M51.375 32.325C54.0674 32.325 56.25 30.1424 56.25 27.45C56.25 24.7576 54.0674 22.575 51.375 22.575C48.6826 22.575 46.5 24.7576 46.5 27.45C46.5 30.1424 48.6826 32.325 51.375 32.325Z" fill="#55AD8B"/>
<path d="M9.85 27.45C13.2189 27.45 15.95 24.7189 15.95 21.35C15.95 17.9811 13.2189 15.25 9.85 15.25C6.48106 15.25 3.75 17.9811 3.75 21.35C3.75 24.7189 6.48106 27.45 9.85 27.45Z" fill="#55AD8B"/>
</svg>
