<svg width="24" height="24" viewBox="0 0 24 24" fill="none" xmlns="http://www.w3.org/2000/svg">
<path d="M17.002 3.5H7.00195C4.00195 3.5 2.00195 5 2.00195 8.5V15.5C2.00195 19 4.00195 20.5 7.00195 20.5H17.002C20.0019 20.5 22.0019 19 22.0019 15.5V8.5C22.0019 5 20.0019 3.5 17.002 3.5ZM17.4719 9.59L14.342 12.09C13.682 12.62 12.842 12.88 12.002 12.88C11.162 12.88 10.312 12.62 9.66195 12.09L6.53195 9.59C6.21195 9.33 6.16195 8.85 6.41195 8.53C6.67195 8.21 7.14195 8.15 7.46195 8.41L10.592 10.91C11.352 11.52 12.642 11.52 13.402 10.91L16.532 8.41C16.852 8.15 17.332 8.2 17.582 8.53C17.842 8.85 17.7919 9.33 17.4719 9.59Z" fill="#084453"/>
</svg>
