<svg width="60" height="60" viewBox="0 0 60 60" fill="none" xmlns="http://www.w3.org/2000/svg">
<path d="M38.4751 13.025L42.0001 20.075C42.4751 21.05 43.7501 21.975 44.8251 22.175L51.2001 23.225C55.2751 23.9 56.2251 26.85 53.3001 29.8L48.3251 34.775C47.5001 35.6 47.0251 37.225 47.3001 38.4L48.7251 44.55C49.8501 49.4 47.2501 51.3 42.9751 48.75L37.0001 45.2C35.9251 44.55 34.1251 44.55 33.0501 45.2L27.0751 48.75C22.8001 51.275 20.2001 49.4 21.3251 44.55L22.7501 38.4C22.9751 37.2 22.5001 35.575 21.6751 34.75L16.7001 29.775C13.7751 26.85 14.7251 23.9 18.8001 23.2L25.1751 22.15C26.2501 21.975 27.5251 21.025 28.0001 20.05L31.5251 13C33.4501 9.2 36.5501 9.2 38.4751 13.025Z" fill="#55AD8B"/>
<path d="M20 14.375H5C3.975 14.375 3.125 13.525 3.125 12.5C3.125 11.475 3.975 10.625 5 10.625H20C21.025 10.625 21.875 11.475 21.875 12.5C21.875 13.525 21.025 14.375 20 14.375Z" fill="#55AD8B"/>
<path d="M12.5 49.375H5C3.975 49.375 3.125 48.525 3.125 47.5C3.125 46.475 3.975 45.625 5 45.625H12.5C13.525 45.625 14.375 46.475 14.375 47.5C14.375 48.525 13.525 49.375 12.5 49.375Z" fill="#55AD8B"/>
<path d="M7.5 31.875H5C3.975 31.875 3.125 31.025 3.125 30C3.125 28.975 3.975 28.125 5 28.125H7.5C8.525 28.125 9.375 28.975 9.375 30C9.375 31.025 8.525 31.875 7.5 31.875Z" fill="#55AD8B"/>
</svg>
