<svg width="353" height="326" viewBox="0 0 353 326" fill="none" xmlns="http://www.w3.org/2000/svg">
<path opacity="0.7" d="M72.7588 7.82507C101.722 -9.59648 134.724 5.23468 163.982 16.5117C178.143 22.4499 191.945 29.5863 204.686 37.5106C235.594 56.2919 260.675 82.0535 287.662 103.741C307.407 120.16 331.37 132.57 351.219 145.43C357.968 150.048 362.9 154.55 365.466 159.6C375.121 179.454 346.407 203.672 328.917 218.436C261.063 272.25 143.841 343.603 71.1972 359.824C46.7273 364.62 30.9106 358.238 21.6582 338.676C6.39908 303.862 1.71966 262.822 0.184504 218.742C-0.914224 158.547 9.07591 89.6751 46.481 34.5443C53.5038 24.4825 61.9184 14.6086 72.6528 7.94458L72.784 7.86881L72.7588 7.82507Z" fill="white"/>
</svg>
