<svg width="60" height="60" viewBox="0 0 60 60" fill="none" xmlns="http://www.w3.org/2000/svg">
<path d="M53.9002 26.85L50.5002 22.9C49.8502 22.15 49.3252 20.75 49.3252 19.75V15.5C49.3252 12.85 47.1502 10.675 44.5002 10.675H40.2502C39.2752 10.675 37.8502 10.15 37.1002 9.5L33.1502 6.1C31.4252 4.625 28.6002 4.625 26.8502 6.1L22.9252 9.525C22.1752 10.15 20.7502 10.675 19.7752 10.675H15.4502C12.8002 10.675 10.6252 12.85 10.6252 15.5V19.775C10.6252 20.75 10.1002 22.15 9.47519 22.9L6.1002 26.875C4.6502 28.6 4.6502 31.4 6.1002 33.125L9.47519 37.1C10.1002 37.85 10.6252 39.25 10.6252 40.225V44.5C10.6252 47.15 12.8002 49.325 15.4502 49.325H19.7752C20.7502 49.325 22.1752 49.85 22.9252 50.5L26.8752 53.9C28.6002 55.375 31.4252 55.375 33.1752 53.9L37.1252 50.5C37.8752 49.85 39.2752 49.325 40.2752 49.325H44.5252C47.1752 49.325 49.3502 47.15 49.3502 44.5V40.25C49.3502 39.275 49.8752 37.85 50.5252 37.1L53.9252 33.15C55.3752 31.425 55.3752 28.575 53.9002 26.85ZM40.4002 25.275L28.3252 37.35C27.9752 37.7 27.5002 37.9 27.0002 37.9C26.5002 37.9 26.0252 37.7 25.6752 37.35L19.6252 31.3C18.9002 30.575 18.9002 29.375 19.6252 28.65C20.3502 27.925 21.5502 27.925 22.2752 28.65L27.0002 33.375L37.7502 22.625C38.4752 21.9 39.6752 21.9 40.4002 22.625C41.1252 23.35 41.1252 24.55 40.4002 25.275Z" fill="#55AD8B"/>
</svg>
