<svg width="29" height="28" viewBox="0 0 29 28" fill="none" xmlns="http://www.w3.org/2000/svg">
<path d="M21.2808 5.85322H7.66933C4.99766 5.85322 2.8335 7.99405 2.8335 10.6354V17.3647C2.8335 20.0061 4.99883 22.1481 7.66933 22.1481H21.2808C23.9525 22.1481 26.1167 20.0061 26.1167 17.3647V10.6354C26.1167 7.99405 23.9513 5.85205 21.2808 5.85205V5.85322ZM18.0107 14.3267L11.6442 17.3309C11.6053 17.3496 11.5624 17.3582 11.5194 17.3558C11.4763 17.3534 11.4346 17.3402 11.398 17.3174C11.3615 17.2946 11.3313 17.2629 11.3103 17.2253C11.2892 17.1876 11.2781 17.1453 11.2778 17.1022V10.9084C11.2786 10.8651 11.2903 10.8227 11.3119 10.7851C11.3335 10.7475 11.3643 10.7161 11.4013 10.6936C11.4383 10.6711 11.4804 10.6584 11.5237 10.6565C11.567 10.6547 11.61 10.6639 11.6488 10.6832L18.0165 13.8741C18.0589 13.8952 18.0945 13.9279 18.1192 13.9683C18.1438 14.0088 18.1566 14.0554 18.156 14.1028C18.1554 14.1502 18.1414 14.1964 18.1157 14.2363C18.09 14.2761 18.0536 14.3078 18.0107 14.3279V14.3267Z" fill="#084453"/>
</svg>
